<?xml version="1.0" encoding="UTF-8"?>
<svg xmlns="http://www.w3.org/2000/svg" viewBox="0 0 299.16 51.34" width="2400" height="409.36454849498"><path fill="#009d00" stroke-width="0" d="m21.74 44.53 23.89-32.94 4.2 5.79-19.69 27.15zM8.4 51.34 41.42 5.79 37.22 0 0 51.34z"/><path fill="#006bff" stroke-width="0" d="m63.75 44.53 2.88-3.98-4.2-5.79-7.08 9.77zm-21.74 6.81 16.22-22.37-4.2-5.79-20.42 28.17h8.4Z"/><path stroke-width="0" d="M281.75 15.42c-3.52 0-5.82.87-8.42 2.3-1.18-1.43-3.06-2.3-5.97-2.3s-5.15 1.07-7.3 2.45v-2.09h-6.48v28.79h6.74V22.88c2.09-1.12 3.62-1.69 4.7-1.69 2.86 0 3.52 1.02 3.52 4.95v18.42h6.74V26.14c0-1.27-.05-2.55-.21-3.67 1.84-.97 3.78-1.27 4.75-1.27 2.86 0 3.67 1.02 3.67 4.95v18.42h6.74V26.15c0-5.97-1.53-10.72-8.47-10.72M184.35 31.68c0 4.18-1.07 7.3-5.46 7.3h-4.9V21.29c1.43-.21 3.67-.36 4.9-.36 4.39 0 5.46 3.11 5.46 7.3zm-5.47-16.26c-1.22 0-3.01.1-4.9.36V5.72h-6.74v38.77h11.64c8.22 0 12.2-4.85 12.2-12.81v-3.45c0-7.96-3.98-12.81-12.2-12.81M96.42 27.72H85.6v-.21c0-4.03 2.3-6.28 5.46-6.28s5.36 2.3 5.36 6.28zm-5.36-12.3c-7.81 0-12.25 5-12.25 12.96v3.78c0 10.06 7.25 12.81 12.35 12.81 3.77 0 5.78-.17 8.22-.57h.03c.53-.09 1.07-.19 1.66-.29.02 0 .03 0 .05-.01l1.01-.18v-5.359999999999999l-1.05.09h-.02l-.29.03-1.6.14c-2.06.17-4.72.34-7.49.34-4.9 0-6.13-3.52-6.13-6.48v-.15h17.66v-4.14c0-7.61-4.29-12.96-12.15-12.96M213.44 27.72h-10.82v-.21c0-4.03 2.3-6.28 5.46-6.28s5.36 2.3 5.36 6.28zm-5.36-12.3c-7.81 0-12.25 5-12.25 12.96v3.78c0 10.06 7.25 12.81 12.35 12.81 3.77 0 5.78-.17 8.22-.57h.03c.53-.09 1.07-.19 1.66-.29.02 0 .03 0 .05-.01l1.01-.18v-5.359999999999999l-1.05.09h-.02l-.29.03-1.6.14c-2.06.17-4.72.34-7.49.34-4.9 0-6.13-3.52-6.13-6.48v-.15h17.66v-4.14c0-7.61-4.29-12.96-12.15-12.96M153.36 38.18c-1.48.82-3.37 1.43-5.21 1.43-2.55 0-3.67-.66-3.67-3.17v-.21c0-2.86 1.02-4.34 5.67-4.34h3.22v6.28Zm-4.49-22.76c-3.1 0-5.77.32-7.76.67l-.31.06q-.24.045-.45.09h-.01l-.94.18v.74s-.01.09-.01.14v3.27s0 .09.01.13v.85l1.73-.16c1.8-.19 4.82-.36 7.76-.36s4.49.82 4.49 4.14v2.25h-3.22c-8.88 0-12.45 3.01-12.45 8.83v.21c0 6.89 4.59 8.52 8.83 8.52 2.45 0 4.85-.82 7.2-2.25v1.84h6.38V25.18c0-6.53-3.98-9.75-11.23-9.75M240.38 38.18c-1.48.82-3.37 1.43-5.21 1.43-2.55 0-3.67-.66-3.67-3.17v-.21c0-2.86 1.02-4.34 5.67-4.34h3.22v6.28Zm-4.49-22.76c-3.1 0-5.77.32-7.76.67l-.31.06q-.24.045-.45.09h-.01l-.94.18v.74s-.01.09-.01.14v3.27s0 .09.01.13v.85l1.73-.16c1.8-.19 4.82-.36 7.76-.36s4.49.82 4.49 4.14v2.25h-3.22c-8.88 0-12.46 3.01-12.46 8.83v.21c0 6.89 4.59 8.52 8.83 8.52 2.45 0 4.85-.82 7.2-2.25v1.84h6.38V25.18c0-6.53-3.98-9.75-11.23-9.75"/><path stroke-width="0" d="M127.28 15.78 120.3 25.37 113.33 15.78 106.34 15.78 116.81 30.17 106.34 44.57 113.33 44.57 120.3 34.97 127.28 44.57 134.26 44.57 123.8 30.17 134.26 15.78 127.28 15.78 127.28 15.78z"/><path stroke-width="0" d="M295.12 17.14h-1.02v2.56h-.86v-2.56h-1.02v-.73h2.9zm4.04-.73v3.28h-.81v-2.31h-.02l-.61 2.31h-.79l-.61-2.33h-.02v2.33h-.81v-3.28h1.17l.69 2.39.63-2.39h1.17Z"/></svg>
